<svg width="226" height="295" viewBox="0 0 226 295" fill="none" xmlns="http://www.w3.org/2000/svg">
<g clip-path="url(#clip0_4651_2143)">
<path d="M180.298 40.4929H92.1793C87.6684 40.5103 83.3475 42.3105 80.1586 45.5009C76.9697 48.6913 75.1715 53.0131 75.1562 57.5239V277.371C75.17 281.881 76.9679 286.203 80.1573 289.393C83.3468 292.582 87.6687 294.38 92.1793 294.394H180.298C184.81 294.382 189.133 292.584 192.324 289.395C195.515 286.205 197.314 281.883 197.328 277.371V57.5239C197.313 53.012 195.514 48.6892 192.323 45.4987C189.133 42.3082 184.81 40.5087 180.298 40.4929ZM180.637 47.9419C183.277 47.9504 185.805 49.0031 187.671 50.8701C189.536 52.7371 190.587 55.2666 190.593 57.9059V268.629C190.587 271.268 189.536 273.796 187.67 275.662C185.805 277.528 183.276 278.579 180.637 278.586H92.2373C89.598 278.579 87.0686 277.528 85.2018 275.663C83.3349 273.797 82.2824 271.268 82.2743 268.629V57.9079C82.2837 55.2684 83.3364 52.7397 85.2028 50.8731C87.0691 49.0066 89.5977 47.9537 92.2373 47.9439L180.637 47.9419Z" fill="#29293D"/>
<path d="M180.298 40.0769H92.1793C87.5546 40.0835 83.1214 41.924 79.8518 45.1947C76.5823 48.4654 74.7433 52.8993 74.7383 57.5239V277.371C74.7436 281.994 76.5826 286.427 79.8519 289.696C83.1212 292.966 87.5538 294.805 92.1773 294.81H180.298C184.922 294.805 189.355 292.966 192.624 289.697C195.894 286.427 197.733 281.995 197.738 277.371V57.5239C197.733 52.8997 195.894 48.4663 192.625 45.1957C189.356 41.9251 184.924 40.0843 180.299 40.0769M196.913 277.371C196.906 281.774 195.154 285.995 192.039 289.108C188.925 292.221 184.703 293.972 180.299 293.977H92.1793C87.7766 293.972 83.5555 292.221 80.4423 289.108C77.3291 285.995 75.5781 281.774 75.5733 277.371V57.5239C75.5778 53.1203 77.3285 48.8982 80.4415 45.7835C83.5545 42.6688 87.7757 40.9158 92.1793 40.9089H180.298C184.703 40.9158 188.925 42.6685 192.039 45.783C195.153 48.8974 196.906 53.1195 196.912 57.5239L196.913 277.371Z" fill="#CCCCCC"/>
<path opacity="0.3" d="M190.593 57.9059V268.63C190.587 271.268 189.536 273.797 187.67 275.663C185.805 277.529 183.276 278.58 180.637 278.586H92.2374C89.5982 278.58 87.0686 277.529 85.2016 275.663C83.3346 273.798 82.2819 271.269 82.2734 268.63V57.9059C82.2816 55.2658 83.334 52.7362 85.2009 50.8693C87.0677 49.0025 89.5973 47.9501 92.2374 47.9419H180.637C183.277 47.9503 185.805 49.0031 187.671 50.8701C189.536 52.7371 190.587 55.2666 190.593 57.9059Z" fill="#FC6011"/>
<path d="M127.051 49.47C127.563 49.4692 128.064 49.6202 128.49 49.9038C128.916 50.1875 129.249 50.5911 129.446 51.0638C129.643 51.5364 129.695 52.0567 129.596 52.5591C129.498 53.0615 129.252 53.5234 128.891 53.8864C128.53 54.2494 128.07 54.4973 127.568 54.5987C127.066 54.7001 126.545 54.6504 126.072 54.4561C125.598 54.2617 125.192 53.9313 124.906 53.5066C124.621 53.0819 124.467 52.582 124.465 52.07C124.464 51.7295 124.53 51.3921 124.66 51.0771C124.789 50.7622 124.979 50.4758 125.219 50.2344C125.46 49.993 125.745 49.8012 126.059 49.67C126.373 49.5389 126.71 49.4709 127.051 49.47Z" fill="#3B414B"/>
<path d="M147.926 51.816C147.949 52.2796 147.832 52.7393 147.591 53.136C147.35 53.5326 146.996 53.8478 146.574 54.0411C146.152 54.2344 145.682 54.2968 145.224 54.2202C144.766 54.1437 144.342 53.9317 144.006 53.6117C143.67 53.2917 143.437 52.8782 143.338 52.4248C143.24 51.9713 143.279 51.4986 143.451 51.0677C143.624 50.6368 143.921 50.2674 144.305 50.0072C144.69 49.747 145.143 49.608 145.607 49.608C146.207 49.5941 146.789 49.8187 147.223 50.2326C147.658 50.6465 147.911 51.216 147.926 51.816Z" fill="#515760"/>
<path d="M140.269 50.755V52.064C140.27 52.2329 140.237 52.4002 140.172 52.5563C140.108 52.7125 140.013 52.8544 139.894 52.9738C139.775 53.0932 139.633 53.1878 139.477 53.2522C139.32 53.3166 139.153 53.3495 138.984 53.349H133.904C133.563 53.3487 133.237 53.2132 132.996 52.9723C132.755 52.7314 132.619 52.4047 132.619 52.064V50.755C132.621 50.4147 132.757 50.089 132.998 49.8484C133.238 49.6078 133.564 49.4718 133.904 49.47H138.984C139.325 49.4702 139.652 49.6057 139.892 49.8466C140.133 50.0876 140.269 50.4143 140.269 50.755Z" fill="#1A1F29"/>
<path d="M129.644 52.0609C129.645 51.5487 129.494 51.0477 129.21 50.6213C128.926 50.195 128.522 49.8624 128.049 49.6656C127.576 49.4689 127.055 49.4168 126.553 49.5159C126.05 49.6151 125.588 49.861 125.225 50.2227C124.863 50.5844 124.615 51.0455 124.515 51.5477C124.414 52.05 124.464 52.5708 124.66 53.0444C124.855 53.518 125.186 53.923 125.612 54.2082C126.037 54.4935 126.538 54.6461 127.05 54.6469C127.737 54.6475 128.396 54.3754 128.882 53.8906C129.368 53.4057 129.642 52.7477 129.644 52.0609ZM138.985 49.4669H133.904C133.564 49.4685 133.238 49.6044 132.998 49.8451C132.757 50.0858 132.621 50.4117 132.62 50.7519V52.0609C132.62 52.4015 132.755 52.7281 132.996 52.9689C133.237 53.2097 133.564 53.3449 133.904 53.3449H138.985C139.154 53.3456 139.321 53.3128 139.477 53.2486C139.634 53.1843 139.775 53.0897 139.895 52.9704C140.014 52.851 140.109 52.7092 140.173 52.5532C140.238 52.3971 140.271 52.2298 140.27 52.0609V50.7609C140.27 50.4202 140.134 50.0935 139.893 49.8526C139.652 49.6117 139.326 49.4762 138.985 49.4759M116.955 47.9509H156.075C156.075 47.9509 151.865 48.6809 151.832 52.6339C151.799 56.5869 148.476 57.2499 145.499 57.2499H127.535C124.56 57.2499 121.245 56.5789 121.202 52.6339C121.159 48.6889 116.959 47.9509 116.959 47.9509M145.612 49.6169C145.181 49.639 144.765 49.7873 144.417 50.0433C144.069 50.2993 143.803 50.6519 143.654 51.0572C143.504 51.4626 143.477 51.9029 143.575 52.3237C143.673 52.7445 143.893 53.1273 144.206 53.4245C144.52 53.7218 144.914 53.9205 145.339 53.996C145.765 54.0716 146.203 54.0206 146.6 53.8495C146.996 53.6783 147.334 53.3945 147.571 53.0332C147.808 52.6719 147.934 52.249 147.933 51.8169C147.915 51.218 147.661 50.6504 147.226 50.2382C146.791 49.826 146.211 49.6027 145.612 49.6169Z" fill="#3E394F"/>
<path d="M193.064 57.006V268.63H190.591V57.906C190.585 55.267 189.535 52.7376 187.67 50.8706C185.804 49.0036 183.276 47.9507 180.637 47.942H92.2371C89.597 47.9502 87.0673 49.0026 85.2005 50.8694C83.3337 52.7363 82.2813 55.2659 82.2731 57.906V268.63H79.9551V57.006C79.9667 53.4772 81.3736 50.0962 83.8689 47.6009C86.3642 45.1056 89.7452 43.6986 93.2741 43.687H179.745C183.275 43.6957 186.657 45.1018 189.153 47.5977C191.649 50.0936 193.055 53.4763 193.064 57.006Z" fill="#3E394F"/>
<path d="M193.064 268.63V277.864C193.054 281.393 191.647 284.775 189.152 287.27C186.656 289.766 183.274 291.173 179.745 291.183H93.2741C89.7457 291.17 86.3656 289.762 83.8707 287.267C81.3757 284.772 79.9682 281.392 79.9551 277.864V268.63H82.2741C82.2823 271.269 83.3349 273.798 85.202 275.664C87.0691 277.529 89.5987 278.58 92.2381 278.586H180.638C183.276 278.579 185.805 277.528 187.67 275.662C189.535 273.797 190.586 271.268 190.592 268.63H193.064Z" fill="#3E394F"/>
<g style="mix-blend-mode:multiply">
<mask id="mask0_4651_2143" style="mask-type:luminance" maskUnits="userSpaceOnUse" x="119" y="68" width="51" height="51">
<path d="M169.801 68.5791H119.496V118.885H169.801V68.5791Z" fill="white"/>
</mask>
<g mask="url(#mask0_4651_2143)">
<path d="M161.748 118.885H127.548C125.414 118.879 123.369 118.028 121.86 116.518C120.352 115.009 119.502 112.963 119.496 110.829V76.6292C119.502 74.4955 120.353 72.451 121.861 70.9422C123.37 69.4334 125.414 68.5828 127.548 68.5762H161.748C163.882 68.5822 165.927 69.4327 167.435 70.9416C168.944 72.4506 169.794 74.4953 169.8 76.6292V110.829C169.794 112.963 168.944 115.008 167.435 116.517C165.927 118.026 163.882 118.876 161.748 118.882" fill="#FC6011"/>
</g>
</g>
<g style="mix-blend-mode:multiply">
<mask id="mask1_4651_2143" style="mask-type:luminance" maskUnits="userSpaceOnUse" x="175" y="67" width="51" height="51">
<path d="M225.442 67.5371H175.137V117.842H225.442V67.5371Z" fill="white"/>
</mask>
<g mask="url(#mask1_4651_2143)">
<path d="M217.388 117.842H183.188C181.054 117.836 179.009 116.985 177.5 115.476C175.992 113.968 175.141 111.923 175.135 109.789V75.5891C175.141 73.4553 175.992 71.4107 177.5 69.9018C179.009 68.3929 181.054 67.5425 183.188 67.5361H217.388C219.522 67.5422 221.566 68.3926 223.075 69.9015C224.584 71.4104 225.435 73.4552 225.441 75.5891V109.789C225.435 111.923 224.584 113.968 223.075 115.477C221.566 116.986 219.522 117.836 217.388 117.842Z" fill="#FC6011"/>
</g>
</g>
<g style="mix-blend-mode:multiply">
<mask id="mask2_4651_2143" style="mask-type:luminance" maskUnits="userSpaceOnUse" x="119" y="129" width="51" height="52">
<path d="M169.801 129.731H119.496V180.036H169.801V129.731Z" fill="white"/>
</mask>
<g mask="url(#mask2_4651_2143)">
<path d="M161.748 180.035H127.548C125.414 180.028 123.37 179.178 121.861 177.669C120.353 176.16 119.502 174.116 119.496 171.982V137.782C119.502 135.648 120.353 133.604 121.861 132.095C123.37 130.586 125.414 129.736 127.548 129.729H161.748C163.882 129.735 165.927 130.585 167.435 132.094C168.944 133.603 169.794 135.648 169.8 137.782V171.982C169.794 174.116 168.944 176.161 167.435 177.67C165.927 179.179 163.882 180.029 161.748 180.035Z" fill="#FC6011"/>
</g>
</g>
<g style="mix-blend-mode:multiply">
<mask id="mask3_4651_2143" style="mask-type:luminance" maskUnits="userSpaceOnUse" x="175" y="128" width="51" height="51">
<path d="M225.442 128.688H175.137V178.993H225.442V128.688Z" fill="white"/>
</mask>
<g mask="url(#mask3_4651_2143)">
<path d="M217.388 178.993H183.188C181.054 178.987 179.009 178.136 177.5 176.627C175.992 175.118 175.141 173.074 175.135 170.94V136.74C175.141 134.606 175.992 132.562 177.5 131.053C179.009 129.544 181.054 128.693 183.188 128.687H217.388C219.522 128.693 221.566 129.543 223.075 131.052C224.584 132.561 225.435 134.606 225.441 136.74V170.94C225.435 173.074 224.584 175.119 223.075 176.628C221.566 178.137 219.522 178.987 217.388 178.993Z" fill="#FC6011"/>
</g>
</g>
<path d="M218.889 163.298H180.477V166.12H218.889V163.298Z" fill="white"/>
<path d="M196.127 139.181C196.126 138.561 196.309 137.955 196.653 137.438C196.996 136.922 197.485 136.52 198.058 136.282C198.63 136.043 199.26 135.98 199.869 136.1C200.477 136.22 201.036 136.518 201.475 136.956C201.914 137.393 202.214 137.952 202.336 138.56C202.458 139.167 202.397 139.798 202.16 140.371C201.924 140.944 201.523 141.435 201.008 141.78C200.493 142.125 199.887 142.31 199.267 142.311C198.436 142.31 197.64 141.98 197.051 141.394C196.463 140.807 196.131 140.012 196.127 139.181Z" fill="white"/>
<path d="M218.14 161.245H181.728C181.728 161.245 180.261 143.603 199.688 144.137C211.366 144.456 215.677 150.551 217.247 155.374C217.881 157.265 218.183 159.251 218.14 161.245Z" fill="white"/>
<path d="M8.64915 112.312L47.8442 188.059C52.1741 196.427 60.4122 201.087 67.4082 199.675C72.6021 194.78 73.5552 185.364 69.2262 176.997L30.0261 101.249C25.6961 92.8811 17.4462 88.1971 10.4502 89.6101C8.20367 91.8208 6.7238 94.6926 6.22715 97.8051C5.79934 100.16 5.79155 102.572 6.20415 104.93C6.60722 107.508 7.43191 110.003 8.64515 112.313" fill="#FFC377"/>
<path d="M0.321649 100.865C-0.484573 105.833 0.365428 110.928 2.74065 115.365L41.9407 191.111C46.9457 200.785 57.1907 205.511 64.6907 201.629C65.6902 201.116 66.607 200.455 67.4106 199.67C60.4106 201.082 52.1767 196.422 47.8466 188.054L29.9466 153.47L8.64665 112.307C7.43341 109.997 6.60872 107.502 6.20565 104.924C5.79366 102.566 5.80145 100.154 6.22865 97.799C6.72503 94.6865 8.20493 91.8146 10.4516 89.604C9.34645 89.8058 8.27785 90.1726 7.28165 90.692C3.53165 92.633 1.14365 96.383 0.32065 100.856" fill="#FA9E4A"/>
<path d="M13.2691 109.625L27.5951 104.767C27.8042 104.706 27.9956 104.596 28.1533 104.446C28.311 104.296 28.4304 104.11 28.5014 103.905C28.5725 103.699 28.5931 103.479 28.5615 103.264C28.53 103.048 28.4472 102.844 28.3201 102.667C28.0295 102.249 27.6144 101.934 27.1341 101.767C26.6447 101.595 26.1133 101.584 25.6171 101.735L11.2911 106.593C11.0782 106.648 10.8823 106.755 10.7209 106.905C10.5594 107.054 10.4374 107.241 10.3658 107.449C10.2941 107.657 10.275 107.879 10.3101 108.096C10.3452 108.313 10.4335 108.518 10.5671 108.693C10.7808 109.008 11.0664 109.267 11.4001 109.45C11.5136 109.508 11.6316 109.556 11.7531 109.594C12.242 109.766 12.7733 109.778 13.2691 109.626" fill="#FA9E4A"/>
<path d="M24.8025 131.779L39.1285 126.921C39.3376 126.86 39.529 126.75 39.6867 126.6C39.8444 126.45 39.9638 126.265 40.0348 126.059C40.1059 125.853 40.1265 125.633 40.0949 125.418C40.0634 125.202 39.9806 124.998 39.8535 124.821C39.5593 124.401 39.1399 124.084 38.655 123.916C38.1701 123.748 37.6446 123.738 37.1535 123.887L22.8275 128.743C22.6148 128.798 22.4191 128.906 22.2578 129.055C22.0965 129.204 21.9746 129.391 21.9029 129.599C21.8313 129.807 21.8121 130.029 21.8471 130.246C21.8821 130.463 21.9702 130.668 22.1035 130.843C22.3166 131.158 22.6023 131.418 22.9365 131.6C23.0505 131.657 23.1684 131.705 23.2895 131.744C23.7784 131.916 24.3097 131.928 24.8055 131.776" fill="#FA9E4A"/>
<path d="M37.8852 160.306L52.2112 155.448C52.4203 155.387 52.6117 155.277 52.7694 155.127C52.9272 154.977 53.0465 154.792 53.1176 154.586C53.1886 154.38 53.2092 154.16 53.1777 153.945C53.1461 153.729 53.0633 153.525 52.9362 153.348C52.6422 152.928 52.2227 152.611 51.7378 152.443C51.2528 152.275 50.7273 152.265 50.2362 152.414L35.9102 157.272C35.6974 157.327 35.5015 157.434 35.34 157.584C35.1786 157.733 35.0566 157.92 34.9849 158.128C34.9132 158.336 34.8941 158.558 34.9292 158.775C34.9644 158.992 35.0527 159.197 35.1862 159.372C35.4 159.687 35.6855 159.946 36.0192 160.129C36.599 160.417 37.2647 160.48 37.8882 160.306" fill="#FA9E4A"/>
<path d="M49.4178 182.465L63.7438 177.607C63.9529 177.546 64.1443 177.436 64.302 177.286C64.4597 177.136 64.5791 176.951 64.6502 176.745C64.7212 176.539 64.7418 176.319 64.7103 176.104C64.6787 175.888 64.5959 175.684 64.4688 175.507C64.1748 175.086 63.7553 174.77 63.2704 174.602C62.7854 174.434 62.2599 174.424 61.7688 174.573L47.4388 179.431C47.2261 179.486 47.0304 179.594 46.8691 179.743C46.7078 179.892 46.5859 180.079 46.5143 180.287C46.4426 180.495 46.4234 180.717 46.4584 180.934C46.4934 181.151 46.5815 181.356 46.7148 181.531C46.9289 181.846 47.2143 182.105 47.5478 182.288C47.6618 182.345 47.7798 182.393 47.9008 182.432C48.3898 182.604 48.9219 182.616 49.4178 182.465Z" fill="#FA9E4A"/>
<path d="M32.4391 138.987C32.0711 140.119 32.8331 141.287 33.6111 142.187C38.5427 147.865 45.4692 151.429 52.9561 152.14C53.1221 151.912 53.2871 151.683 53.4561 151.455C53.4228 151.159 53.3935 150.864 53.3681 150.57C51.6201 147.056 49.2541 143.886 46.3831 141.211C44.9193 139.856 43.2005 138.806 41.3267 138.122C39.4529 137.438 37.4617 137.134 35.4691 137.227C34.2331 137.333 32.8231 137.81 32.4341 138.987" fill="#339DD5"/>
<path d="M36.1951 121.935C35.989 122.386 35.9228 122.889 36.0051 123.379C36.4741 128.726 40.1511 133.279 44.3101 136.672C46.7889 138.701 49.4858 140.449 52.3511 141.882C52.8691 139.39 52.0061 136.801 50.8861 134.511C48.4055 129.462 44.631 125.16 39.9471 122.045C39.3821 121.62 38.7308 121.323 38.0391 121.177C37.6913 121.112 37.3322 121.149 37.0049 121.283C36.6777 121.418 36.3964 121.644 36.1951 121.935Z" fill="#4A4B4D"/>
<path d="M38 110.646C38.0283 112.311 38.5302 113.933 39.447 115.323C42.6008 120.706 47.6709 124.7 53.643 126.505C52.4585 121.737 50.2413 117.287 47.148 113.47C45.5235 111.249 43.3146 109.521 40.767 108.48C40.3981 108.33 39.9987 108.27 39.602 108.306C38.591 108.453 38.053 109.617 38.002 110.643" fill="#4A4B4D"/>
<path d="M53.787 115.171C53.8236 115.17 53.8601 115.167 53.896 115.16C53.8984 115.082 53.8961 115.004 53.889 114.927H53.817C52.7919 109.306 49.7299 104.26 45.217 100.756C44.8396 100.457 44.436 100.193 44.011 99.966C43.6688 99.761 43.289 99.6266 42.894 99.5706C42.499 99.5146 42.0968 99.5382 41.711 99.6399C41.5309 101.956 42.0848 104.27 43.294 106.254C44.5017 108.222 45.9591 110.026 47.63 111.62C49.283 113.293 51.162 114.995 53.49 115.297C53.5462 115.302 53.6026 115.292 53.6541 115.27C53.7057 115.247 53.7507 115.212 53.785 115.167" fill="#4A4B4D"/>
<path d="M43.2142 95.087C42.9868 95.2386 42.815 95.4603 42.7248 95.7183C42.6346 95.9763 42.6309 96.2567 42.7142 96.517C43.0655 97.6916 43.8341 98.6974 44.8752 99.345C46.4989 100.545 48.3383 101.422 50.2932 101.927C50.915 102.131 51.5804 102.163 52.2192 102.021L52.4282 102.01C52.3532 101.678 52.2752 101.344 52.1962 101.01C50.1543 98.3898 47.4359 96.3768 44.3342 95.188C43.9876 95.0076 43.5843 94.9696 43.2102 95.082" fill="#4A4B4D"/>
<path d="M50.5003 95.5809C50.5493 95.7119 50.6003 95.8429 50.6493 95.9749C50.7929 93.7164 50.5103 91.451 49.8163 89.2969C49.0603 86.959 47.6091 84.9073 45.6563 83.4159C45.0693 82.9819 44.2063 82.6249 43.6563 83.1109C43.4711 83.3465 43.3508 83.6264 43.3073 83.9229C43.2637 84.2194 43.2986 84.5221 43.4083 84.8009C44.3938 89.103 46.8303 92.9348 50.3083 95.6519L50.5003 95.5809Z" fill="#4A4B4D"/>
<path d="M53.4609 151.454C53.5189 152.015 53.5799 152.571 53.6609 153.126C57.9327 153.108 62.1363 152.053 65.9099 150.051C67.0661 149.551 68.131 148.862 69.0609 148.012C69.5237 147.584 69.8926 147.064 70.1444 146.486C70.3962 145.908 70.5254 145.284 70.5239 144.653C70.5101 144.157 70.3489 143.676 70.0609 143.272C69.6629 142.877 69.1737 142.585 68.6364 142.423C68.0991 142.261 67.5302 142.234 66.9799 142.344C64.0277 142.674 61.2314 143.842 58.9209 145.709C56.8483 147.367 55.0114 149.3 53.4609 151.454Z" fill="#339DD5"/>
<path d="M53.0528 140.918C53.0528 141.368 53.0418 141.818 53.0458 142.267C53.3254 142.334 53.6184 142.319 53.8898 142.224C57.8089 141.227 61.576 139.707 65.0898 137.705C66.9005 136.756 68.5263 135.49 69.8898 133.967C70.5692 133.202 71.0897 132.31 71.4209 131.342C71.7521 130.375 71.8873 129.351 71.8188 128.33C71.7899 127.807 71.5991 127.305 71.2728 126.895C70.9275 126.555 70.4851 126.331 70.0068 126.253C68.0448 125.827 66.0338 126.685 64.3488 127.765C59.4398 130.916 56.1208 135.931 53.0488 140.918" fill="#4A4B4D"/>
<path d="M53.6659 126.612C53.6549 126.866 53.6439 127.119 53.6289 127.369L54.0169 127.387C57.0154 126.654 59.8825 125.462 62.5169 123.853C65.5169 122.027 68.3489 119.393 68.9719 115.94C69.0855 115.533 69.1034 115.106 69.0241 114.691C68.9448 114.277 68.7705 113.886 68.5149 113.55C67.7229 112.721 66.3439 112.95 65.2809 113.394C62.6547 114.578 60.3696 116.405 58.6369 118.707C56.9167 121.005 55.3923 123.443 54.0799 125.996L53.7009 125.978C53.6909 126.16 53.6819 126.342 53.6709 126.519C53.6736 126.552 53.6736 126.586 53.6709 126.619" fill="#4A4B4D"/>
<path d="M53.2204 101.899C53.2034 102.043 53.1824 102.183 53.1664 102.327C55.1967 101.775 57.1128 100.867 58.8254 99.6451C59.6766 99.0279 60.3754 98.224 60.8681 97.2952C61.3609 96.3663 61.6346 95.337 61.6684 94.2861C61.6574 93.7801 61.5034 93.1951 61.0314 93.0181C60.816 92.9561 60.5881 92.9516 60.3704 93.0051C58.7332 93.4585 57.2583 94.3674 56.1174 95.6261C54.4704 97.1571 52.7794 98.9591 52.6074 101.205L52.4414 101.324C52.5654 101.498 52.6874 101.674 52.8114 101.849L53.2204 101.899Z" fill="#4A4B4D"/>
<path d="M58.3739 105.99C56.4122 108.763 54.9602 111.863 54.0859 115.145C56.666 114.859 59.0801 113.731 60.9559 111.937C62.9729 109.965 64.5507 107.588 65.5859 104.964C66.0652 104.104 66.1948 103.093 65.9479 102.14C65.857 101.873 65.6814 101.644 65.4479 101.486C65.0455 101.29 64.582 101.26 64.1579 101.404C61.7119 101.982 59.8269 103.933 58.3739 105.99Z" fill="#4A4B4D"/>
<path d="M53.8275 127.26C54.3405 116.326 53.8715 105.243 49.8535 94.934C49.6295 94.363 50.5415 94.077 50.7645 94.648C54.7005 104.748 55.2735 115.604 54.8215 126.329C54.3345 137.85 53.1775 149.358 52.2805 160.853C52.2335 161.453 51.2805 161.509 51.3275 160.896C52.2015 149.696 53.3015 138.483 53.8275 127.26Z" fill="#4A4B4D"/>
<path d="M103.177 138.192C102.924 139.17 102.479 140.087 101.869 140.892C100.772 142.218 99.5313 143.417 98.1692 144.469C96.6052 145.804 95.0332 147.132 93.4592 148.469C91.9892 149.712 90.4542 150.912 89.0592 152.238C87.8692 153.37 86.7082 154.98 87.2822 156.688C87.8112 158.234 89.5972 158.576 91.0822 158.488C92.8902 158.38 94.5972 157.647 96.4242 157.757C97.1409 157.826 97.8357 158.041 98.4656 158.389C99.0954 158.738 99.6468 159.213 100.085 159.783C100.524 160.354 100.84 161.009 101.015 161.708C101.19 162.406 101.219 163.133 101.1 163.843C100.683 167.063 98.0002 169.643 95.4002 171.443C92.5742 173.25 89.5406 174.71 86.3652 175.792C80.4772 178.027 73.7232 180.341 70.5442 186.028C70.2882 186.478 69.5442 186.111 69.7992 185.652C69.8422 185.574 69.8992 185.503 69.9402 185.425C67.1817 183.211 64.5426 180.853 62.0342 178.359C59.455 175.797 57.0208 173.093 54.7432 170.259C53.5902 168.835 52.4712 167.38 51.4222 165.879C50.3886 164.523 49.5932 163.002 49.0702 161.379C48.3432 158.802 49.0702 155.593 51.7312 154.341C54.1472 153.199 56.2412 154.579 58.1062 156.071C58.7142 156.563 59.2962 157.071 59.8552 157.494C61.1212 158.453 62.9652 159.485 64.5942 158.862C65.2472 158.544 65.7738 158.015 66.089 157.361C66.4042 156.707 66.4895 155.966 66.3312 155.257C65.9482 153.658 65.1244 152.198 63.9532 151.043C62.7939 149.711 61.7249 148.303 60.7532 146.828C58.8301 143.907 57.4679 140.654 56.7362 137.234C56.5267 136.437 56.4831 135.606 56.608 134.792C56.7329 133.978 57.0236 133.198 57.4622 132.501C57.8628 131.919 58.4203 131.462 59.0699 131.185C59.7195 130.907 60.4347 130.819 61.1322 130.931C64.3582 131.431 66.0592 135.231 69.4592 135.221C71.2982 135.21 71.8492 133.504 71.4702 132.005C70.9669 130.386 70.0561 128.923 68.8252 127.757C66.5652 125.394 63.7052 123.457 62.2092 120.506C61.4874 119.213 61.2519 117.704 61.5452 116.252C61.8525 114.983 62.5896 113.86 63.6312 113.073C64.1513 112.68 64.7596 112.419 65.4033 112.315C66.0469 112.21 66.7064 112.264 67.3242 112.473C68.8882 113.018 69.9002 114.373 71.3672 115.066C72.0464 115.438 72.841 115.54 73.5922 115.352C73.9503 115.222 74.2481 114.965 74.4292 114.63C74.6102 114.295 74.6618 113.905 74.5742 113.534C74.2932 111.862 72.8112 110.505 71.7542 109.234C69.3372 106.327 67.1408 103.243 65.1832 100.008C64.1772 98.5915 63.5838 96.9236 63.4692 95.19C63.4766 94.5058 63.6504 93.8337 63.9757 93.2317C64.301 92.6297 64.7679 92.116 65.3362 91.735C65.9077 91.4008 66.5605 91.2313 67.2224 91.2453C67.8843 91.2592 68.5293 91.456 69.0862 91.814C70.0622 92.336 71.4292 93.607 72.6312 93.214C74.2592 92.671 73.7572 90.175 73.5312 88.972C73.1862 87.128 72.5812 85.337 72.2212 83.492C71.6752 80.768 71.8102 77.692 73.7212 75.481C74.6754 74.4695 75.9674 73.8432 77.3526 73.7208C78.7377 73.5984 80.1195 73.9884 81.2362 74.817C84.0722 76.685 84.9972 79.947 85.1042 83.074C85.1732 84.852 84.8972 86.642 85.0162 88.412C85.1232 89.998 85.8012 91.88 87.5422 92.423C88.8312 92.835 90.1202 92.078 91.1702 91.457C92.1204 90.7579 93.1979 90.2511 94.3422 89.965C94.903 89.8804 95.4762 89.9702 95.9841 90.2222C96.4921 90.4743 96.9104 90.8763 97.1822 91.374C97.7306 92.6617 97.8099 94.1009 97.4062 95.441C96.7269 98.7671 95.2337 101.873 93.0602 104.481C92.0702 105.681 90.4922 106.876 90.3302 108.507C90.2647 108.825 90.2849 109.156 90.3889 109.464C90.4928 109.772 90.6767 110.047 90.9218 110.26C91.1668 110.474 91.4643 110.618 91.7836 110.679C92.1029 110.74 92.4327 110.715 92.7392 110.607C94.7392 110.007 97.3062 107.587 99.2392 109.816C99.9335 110.763 100.224 111.946 100.047 113.107C99.8465 114.565 99.4165 115.983 98.7732 117.307C97.3846 120.566 95.5063 123.593 93.2032 126.284C92.0422 127.41 91.169 128.799 90.6572 130.333C90.2822 132.062 91.6702 133.164 93.3762 133.141C95.1052 133.127 96.6562 132.283 98.3492 132.074C99.0559 131.961 99.7797 132.027 100.454 132.268C101.128 132.508 101.731 132.914 102.206 133.449C102.75 134.096 103.123 134.869 103.292 135.697C103.461 136.524 103.421 137.382 103.175 138.19" fill="#7C7D7E"/>
<path d="M82.523 104.926C81.9418 97.8935 80.6847 90.9334 78.769 84.142C78.525 83.2873 78.269 82.435 78.001 81.585C77.962 81.4872 77.8874 81.4077 77.7922 81.3626C77.697 81.3176 77.5883 81.3102 77.4879 81.342C77.3874 81.3737 77.3028 81.4423 77.2509 81.534C77.199 81.6256 77.1836 81.7335 77.208 81.836C79.3139 88.6077 80.7393 95.5724 81.463 102.627C82.1778 109.643 82.3429 116.705 81.957 123.747C81.5587 130.937 80.7319 138.097 79.481 145.188C78.238 152.399 76.643 159.547 74.865 166.647C73.078 173.791 71.104 180.887 69.109 187.978C68.859 188.867 68.6087 189.757 68.358 190.648C68.217 191.148 69.038 191.324 69.179 190.825C71.185 183.703 73.192 176.577 75.031 169.41C76.877 162.217 78.557 154.978 79.892 147.673C81.2125 140.593 82.1307 133.444 82.642 126.26C83.1481 119.155 83.1084 112.022 82.523 104.924" fill="#B6B7B7"/>
<path d="M89.85 164.371L71.911 179.546C68.2865 172.875 64.0378 166.563 59.222 160.694C58.888 160.286 58.187 160.722 58.522 161.134C63.4407 167.124 67.7676 173.577 71.442 180.402C71.4793 180.453 71.5272 180.496 71.5824 180.527C71.6376 180.558 71.6989 180.576 71.7621 180.581C71.8252 180.586 71.8886 180.577 71.948 180.555C72.0074 180.533 72.0613 180.499 72.106 180.454L90.476 164.915C90.876 164.574 90.248 164.035 89.849 164.372" fill="#B6B7B7"/>
<path d="M93.3108 139.808L78.0398 154.508C74.8137 148.947 70.9813 143.761 66.6128 139.044C66.2518 138.653 65.6988 139.254 66.0578 139.644C70.4905 144.438 74.3637 149.721 77.6028 155.39C77.6396 155.441 77.6873 155.484 77.7424 155.515C77.7974 155.546 77.8587 155.565 77.9217 155.57C77.9848 155.575 78.0482 155.566 78.1074 155.544C78.1667 155.522 78.2204 155.487 78.2648 155.442C83.4902 150.413 88.7148 145.383 93.9388 140.352C94.3188 139.985 93.6888 139.444 93.3118 139.809" fill="#B6B7B7"/>
<path d="M89.9449 119.686C87.5695 124.15 84.7699 128.376 81.5849 132.304C78.939 127.913 75.7539 123.871 72.1039 120.272C71.7239 119.896 71.1699 120.496 71.5489 120.872C75.2881 124.563 78.5313 128.724 81.1969 133.252C81.2336 133.304 81.2812 133.346 81.3362 133.378C81.3913 133.409 81.4526 133.428 81.5157 133.433C81.5788 133.437 81.6423 133.429 81.7016 133.406C81.7609 133.384 81.8145 133.349 81.8589 133.304C85.2372 129.195 88.1968 124.76 90.6939 120.063C90.9379 119.603 90.1939 119.229 89.9449 119.689" fill="#B6B7B7"/>
<path d="M88.6108 100.445C86.3679 103.343 84.3185 106.386 82.4758 109.554L74.1758 99.7621C73.8368 99.3621 73.1348 99.7961 73.4758 100.201L82.1918 110.481C82.2343 110.539 82.2904 110.585 82.3551 110.616C82.4199 110.647 82.4913 110.662 82.563 110.658C82.6346 110.655 82.7044 110.634 82.7659 110.597C82.8275 110.56 82.879 110.509 82.9158 110.447C84.801 107.151 86.9138 103.99 89.2388 100.988C89.5588 100.577 88.9308 100.031 88.6108 100.445Z" fill="#B6B7B7"/>
<path d="M128.879 114.963C131.174 129.322 128.76 146.957 121.771 159.719C114.12 173.685 101.081 182.188 86.1011 187.564C83.9825 188.352 81.796 188.943 79.5691 189.331C78.7968 187.157 78.2277 184.916 77.8691 182.637C76.104 172.134 77.1587 161.351 80.9254 151.389C84.692 141.428 91.0356 132.644 99.3081 125.937C107.656 119.178 118.164 114.646 128.878 114.967" fill="#4A4B4D"/>
<path d="M124.888 118.322C119.692 123.552 114.799 129.073 110.232 134.86C110.112 134.386 110.081 133.854 110 133.407C109.752 132.015 109.502 130.623 109.252 129.231C109.096 128.363 107.723 128.486 107.879 129.358L108.73 134.103C108.792 134.785 108.966 135.452 109.246 136.077C107.555 138.25 105.909 140.459 104.307 142.702C102.457 145.302 100.698 147.962 98.9823 150.65L96.6523 140.337C96.4583 139.482 95.0853 139.601 95.2793 140.464L97.9513 152.291C94.7633 157.391 91.7833 162.628 89.0723 167.999C88.2056 163.661 87.3389 159.322 86.4723 154.982C86.3003 154.12 84.9263 154.24 85.0993 155.111C86.0559 159.9 87.0123 164.69 87.9683 169.479C87.9976 169.604 88.0524 169.721 88.1293 169.824C88.0983 169.888 88.0633 169.95 88.0293 170.014C85.3886 175.404 83.0029 180.908 80.8723 186.527C80.5583 187.354 81.8133 187.927 82.1293 187.094C84.3493 181.242 86.8873 175.517 89.6623 169.908L104.77 166.808C105.631 166.631 105.51 165.257 104.643 165.435L90.4433 168.344C92.1193 165.033 93.8543 161.753 95.7183 158.544C96.7313 156.8 97.7983 155.087 98.8653 153.375L114.301 151.789C114.478 151.765 114.638 151.675 114.749 151.535C114.861 151.396 114.913 151.219 114.897 151.042C114.881 150.864 114.796 150.7 114.661 150.583C114.527 150.467 114.352 150.407 114.174 150.416L99.7663 151.897C103.037 146.756 106.546 141.776 110.293 136.959C110.457 137.023 110.628 137.069 110.801 137.097C111.43 137.157 112.063 137.141 112.687 137.049L115.262 136.813L120.212 136.359C120.389 136.335 120.549 136.245 120.66 136.105C120.771 135.966 120.824 135.789 120.808 135.612C120.792 135.434 120.707 135.27 120.572 135.153C120.438 135.037 120.263 134.977 120.085 134.986L115.729 135.386C114.341 135.513 112.943 135.705 111.551 135.76C111.451 135.76 111.351 135.76 111.251 135.76C112.142 134.632 113.031 133.503 113.951 132.395C117.746 127.808 121.748 123.404 125.956 119.183C126.581 118.556 125.505 117.691 124.884 118.316" fill="#84878E"/>
<path d="M64.0389 147.838C65.8703 151.896 66.4573 156.405 65.7256 160.797C64.994 165.188 62.9765 169.264 59.9285 172.509C56.8804 175.754 52.9386 178.022 48.6015 179.026C44.2644 180.031 39.7268 179.726 35.5626 178.152C31.3984 176.578 27.7945 173.804 25.2068 170.181C22.6191 166.559 21.1637 162.25 21.0247 157.8C20.8856 153.351 22.0693 148.96 24.4258 145.183C26.7824 141.406 30.2061 138.412 34.2639 136.581C39.7051 134.126 45.8988 133.932 51.4826 136.043C57.0664 138.154 61.5829 142.397 64.0389 147.838Z" fill="#FFA9A9"/>
<path d="M10.1844 137.937C10.8946 139.443 12.0196 140.716 13.4274 141.605C18.5161 145.216 24.7808 146.771 30.9674 145.96C27.9261 142.101 24.0744 138.957 19.6844 136.75C17.29 135.394 14.5664 134.729 11.8164 134.828C11.4183 134.842 11.0293 134.952 10.6824 135.148C9.82144 135.697 9.80944 136.981 10.1824 137.937" fill="#4A4B4D"/>
<path d="M31.4236 128.446C30.4978 129.371 29.8544 130.54 29.5686 131.817C28.2441 136.539 28.752 141.587 30.9906 145.951C33.0428 142.679 34.3513 138.996 34.8236 135.162C35.1926 133.031 34.9638 130.84 34.1626 128.831C34.0464 128.54 33.8623 128.281 33.6256 128.076C33.2696 127.885 32.8605 127.818 32.4624 127.885C32.0643 127.952 31.6996 128.149 31.4256 128.446" fill="#4A4B4D"/>
<path d="M119.396 294.809H37.2324V168.284L43.2174 175.466L49.2014 168.284L55.2014 175.466L61.1864 168.284L67.1864 175.466L73.1704 168.284L79.1544 175.466L85.1544 168.284L91.1384 175.466L97.1224 168.284L103.122 175.466L109.107 168.284L119.396 294.809Z" fill="#FAC46D"/>
<path d="M37.2303 168.285V294.81H15.4863L22.3373 168.285L29.7843 175.467L37.2303 168.285Z" fill="#FA9E4A"/>
<path d="M50.9526 141.994C49.0966 141.994 49.3586 144.868 51.2036 144.868C53.0486 144.868 52.8036 141.994 50.9526 141.994Z" fill="#F25C5C"/>
<path d="M56.7671 148.409C54.9111 148.409 55.1731 151.283 57.0181 151.283C58.8631 151.283 58.6121 148.409 56.7671 148.409Z" fill="#F25C5C"/>
<path d="M50.7514 149.412C48.8954 149.412 49.1574 152.286 51.0024 152.286C52.8474 152.286 52.5964 149.412 50.7514 149.412Z" fill="#F25C5C"/>
<path d="M54.8722 19.786L52.5882 22.91L50.0452 21.052L52.3232 17.923L49.2012 15.651L51.0572 13.099L54.1872 15.376L56.4812 12.231L59.0282 14.088L56.7332 17.233L59.8572 19.518L57.9932 22.065L54.8722 19.786Z" fill="#FC6011"/>
<path d="M74.528 29.469C74.342 28.2771 74.5136 27.0568 75.0211 25.9624C75.5285 24.868 76.3491 23.9487 77.379 23.3206C78.4089 22.6925 79.6019 22.3838 80.8072 22.4337C82.0124 22.4835 83.1759 22.8896 84.1504 23.6006C85.1249 24.3116 85.8667 25.2956 86.2821 26.4282C86.6974 27.5607 86.7677 28.791 86.4839 29.9635C86.2001 31.1359 85.5751 32.1979 84.6878 33.0152C83.8005 33.8325 82.6908 34.3683 81.499 34.555C79.9005 34.803 78.2688 34.4068 76.9619 33.4533C75.6551 32.4998 74.7798 31.067 74.528 29.469ZM79.965 24.746C79.2184 24.8635 78.5234 25.1997 77.9677 25.7121C77.4121 26.2245 77.0208 26.8901 76.8433 27.6248C76.6658 28.3595 76.7101 29.1303 76.9706 29.8398C77.231 30.5493 77.6959 31.1657 78.3065 31.6111C78.9172 32.0566 79.6461 32.311 80.4013 32.3422C81.1565 32.3735 81.904 32.1802 82.5493 31.7868C83.1947 31.3934 83.709 30.8175 84.0272 30.1319C84.3453 29.4463 84.4532 28.6818 84.337 27.935C84.2594 27.4385 84.0847 26.9622 83.823 26.5332C83.5613 26.1042 83.2176 25.731 82.8116 25.4349C82.4056 25.1387 81.9453 24.9255 81.4568 24.8073C80.9684 24.6891 80.4615 24.6683 79.965 24.746Z" fill="#FC6011"/>
<path d="M62.2493 41.7365L58.5566 49.397L66.218 53.0901L69.9106 45.4296L62.2493 41.7365Z" fill="#FECFB7"/>
<path d="M42.6245 33.0729C43.6381 32.9146 44.6759 33.0603 45.6066 33.4917C46.5374 33.9231 47.3193 34.6209 47.8535 35.4967C48.3877 36.3725 48.6502 37.387 48.6079 38.412C48.5655 39.437 48.2201 40.4264 47.6154 41.2551C47.0107 42.0839 46.1739 42.7147 45.2107 43.0678C44.2475 43.4209 43.2013 43.4805 42.2042 43.239C41.2072 42.9975 40.3041 42.4657 39.6093 41.711C38.9144 40.9563 38.459 40.0125 38.3005 38.9989C38.1953 38.3259 38.2237 37.6387 38.3841 36.9767C38.5444 36.3146 38.8336 35.6906 39.2351 35.1403C39.6367 34.5901 40.1427 34.1243 40.7242 33.7695C41.3058 33.4148 41.9515 33.1781 42.6245 33.0729Z" fill="#FECFB7"/>
<path d="M52.9056 66.274C53.5983 66.1657 54.3075 66.2653 54.9436 66.5601C55.5797 66.8549 56.1141 67.3317 56.4792 67.9302C56.8443 68.5287 57.0238 69.222 56.9949 69.9225C56.966 70.623 56.7301 71.2992 56.3169 71.8656C55.9038 72.432 55.3319 72.8632 54.6737 73.1046C54.0155 73.3461 53.3005 73.3869 52.6191 73.222C51.9377 73.0571 51.3205 72.6938 50.8455 72.1782C50.3705 71.6625 50.0591 71.0176 49.9506 70.325C49.8057 69.396 50.0355 68.4474 50.5896 67.6878C51.1437 66.9282 51.9767 66.4196 52.9056 66.274Z" fill="#FC6011"/>
<path d="M191.556 252.314C191.556 260.552 189.113 268.605 184.536 275.454C179.96 282.304 173.455 287.642 165.844 290.795C158.233 293.947 149.859 294.772 141.779 293.165C133.7 291.558 126.278 287.591 120.453 281.766C114.628 275.941 110.661 268.519 109.054 260.44C107.447 252.36 108.272 243.986 111.424 236.375C114.577 228.764 119.915 222.259 126.765 217.683C133.614 213.106 141.667 210.663 149.905 210.663C155.375 210.663 160.791 211.74 165.844 213.833C170.898 215.926 175.489 218.994 179.357 222.862C183.225 226.73 186.293 231.321 188.386 236.375C190.479 241.428 191.556 246.844 191.556 252.314Z" fill="#F25C5C"/>
<path d="M187.607 252.314C187.607 260.552 185.164 268.605 180.587 275.454C176.011 282.304 169.506 287.642 161.895 290.795C154.284 293.947 145.909 294.772 137.83 293.165C129.75 291.558 122.329 287.591 116.504 281.766C110.679 275.941 106.712 268.519 105.105 260.44C103.498 252.36 104.323 243.986 107.475 236.375C110.628 228.764 115.966 222.259 122.816 217.683C129.665 213.106 137.718 210.663 145.956 210.663C151.425 210.663 156.842 211.74 161.895 213.833C166.948 215.926 171.54 218.994 175.408 222.862C179.275 226.73 182.343 231.321 184.436 236.375C186.53 241.428 187.607 246.844 187.607 252.314Z" fill="#FFA9A9"/>
<path d="M184.82 252.314C184.82 260.001 182.54 267.515 178.27 273.907C173.999 280.298 167.929 285.28 160.827 288.222C153.725 291.163 145.911 291.933 138.372 290.433C130.832 288.934 123.907 285.232 118.471 279.796C113.036 274.361 109.334 267.436 107.835 259.896C106.335 252.357 107.105 244.542 110.046 237.441C112.988 230.339 117.97 224.269 124.361 219.998C130.753 215.727 138.267 213.448 145.954 213.448C156.262 213.448 166.148 217.543 173.436 224.832C180.725 232.12 184.82 242.006 184.82 252.314Z" fill="white"/>
<path d="M163.741 265.647L140.047 256.94V220.57H141.881V255.661L164.373 263.923L163.741 265.647Z" fill="#3E394F"/>
<path d="M134.561 222.444L140.961 211.356L147.361 222.444H134.561Z" fill="#3E394F"/>
<path d="M160.086 270.149L172.702 267.964L164.502 258.13L160.086 270.149Z" fill="#3E394F"/>
<g style="mix-blend-mode:multiply">
<mask id="mask4_4651_2143" style="mask-type:luminance" maskUnits="userSpaceOnUse" x="144" y="216" width="37" height="52">
<path d="M180.975 216.429H144.375V267.125H180.975V216.429Z" fill="white"/>
</mask>
<g mask="url(#mask4_4651_2143)">
<path d="M144.375 216.429V254.144L179.629 267.125C179.629 267.125 191.555 221.015 144.375 216.425" fill="#FECFB7"/>
</g>
</g>
<path d="M144.168 256.523C144.168 257.156 143.98 257.775 143.628 258.301C143.277 258.827 142.777 259.237 142.192 259.479C141.607 259.722 140.964 259.785 140.343 259.661C139.723 259.538 139.152 259.233 138.705 258.786C138.257 258.338 137.953 257.768 137.829 257.147C137.706 256.527 137.769 255.883 138.011 255.298C138.253 254.714 138.664 254.214 139.19 253.862C139.716 253.511 140.335 253.323 140.968 253.323C141.816 253.323 142.63 253.66 143.23 254.26C143.83 254.86 144.168 255.674 144.168 256.523Z" fill="#3E394F"/>
<path d="M196.57 11.063L189.856 12.101L190.88 18.767L185.443 19.606L184.419 12.94L177.75 13.97L176.91 8.533L183.579 7.50301L182.545 0.840004L187.982 0L189.017 6.663L195.729 5.627L196.57 11.063ZM187.213 1.04501L183.586 1.605L184.621 8.26801L177.955 9.301L178.515 12.928L185.185 11.897L186.213 18.56L189.84 18L188.813 11.336L195.524 10.301L194.964 6.674L188.252 7.71L187.213 1.04501Z" fill="#FC6011"/>
<path d="M194.875 24.3549C195.757 23.1504 196.975 22.2342 198.378 21.7225C199.78 21.2107 201.302 21.1263 202.752 21.48C204.202 21.8336 205.515 22.6094 206.524 23.7092C207.533 24.809 208.193 26.1833 208.421 27.6584C208.649 29.1335 208.434 30.643 207.804 31.996C207.174 33.349 206.156 34.4847 204.88 35.2593C203.605 36.034 202.128 36.4129 200.637 36.348C199.145 36.2831 197.707 35.7775 196.503 34.8949C194.893 33.7107 193.818 31.9366 193.512 29.9612C193.207 27.9857 193.697 25.9698 194.875 24.3549ZM203.754 24.9959C203 24.4445 202.099 24.129 201.166 24.0894C200.232 24.0498 199.308 24.2879 198.509 24.7735C197.711 25.259 197.074 25.9704 196.68 26.8176C196.286 27.6648 196.152 28.6099 196.295 29.5333C196.437 30.4567 196.851 31.3171 197.482 32.0058C198.114 32.6944 198.936 33.1803 199.843 33.4021C200.751 33.6239 201.704 33.5717 202.582 33.252C203.46 32.9323 204.224 32.3595 204.776 31.6059C205.516 30.5935 205.824 29.3288 205.632 28.0896C205.441 26.8503 204.765 25.7377 203.754 24.9959Z" fill="#FC6011"/>
<path d="M176.446 26.408L176.238 33.813L183.643 34.0203L183.851 26.6153L176.446 26.408Z" fill="#FC6011"/>
<path d="M200.116 42.736C200.394 42.3563 200.779 42.0677 201.221 41.9067C201.664 41.7457 202.144 41.7195 202.602 41.8314C203.059 41.9433 203.473 42.1883 203.791 42.5354C204.109 42.8825 204.317 43.3162 204.389 43.7815C204.461 44.2469 204.393 44.7231 204.194 45.1499C203.995 45.5767 203.674 45.9349 203.272 46.1793C202.869 46.4237 202.403 46.5433 201.933 46.523C201.462 46.5026 201.009 46.3433 200.629 46.065C200.376 45.8803 200.163 45.6476 200 45.3802C199.838 45.1128 199.73 44.8161 199.682 44.5069C199.634 44.1977 199.648 43.8821 199.723 43.5783C199.797 43.2744 199.931 42.9882 200.116 42.736Z" fill="#FC6011"/>
</g>
<defs>
<clipPath id="clip0_4651_2143">
<rect width="225.443" height="294.81" fill="white"/>
</clipPath>
</defs>
</svg>
