<svg width="173" height="273" viewBox="0 0 173 273" fill="none" xmlns="http://www.w3.org/2000/svg">
<path d="M36.9536 250.174L26.7136 234.334V233.454H33.9936L40.3136 243.974L46.5936 233.454H53.8736V234.334L43.6736 250.134V260.654H36.9536V250.174ZM75.0848 253.494C75.0848 254.534 75.3248 255.414 76.3248 255.414C77.1248 255.414 77.7248 255.174 78.3648 254.854L78.6048 260.174C77.4848 260.614 75.6048 261.054 73.6048 261.054C71.2048 261.054 69.5648 260.134 68.8448 258.054C67.4448 259.734 65.2448 261.014 62.4448 261.014C56.7248 261.014 52.8048 256.534 52.8048 250.254C52.8048 243.894 56.7248 239.374 62.4448 239.374C65.0448 239.374 67.0448 240.174 68.3648 241.574V239.734H75.0848V253.494ZM59.6448 250.254C59.6448 253.254 61.4848 255.214 64.3648 255.214C65.8448 255.214 67.3248 254.614 68.3648 253.694V246.734C67.5248 245.894 65.9248 245.214 64.3648 245.214C61.4448 245.214 59.6448 247.174 59.6448 250.254ZM89.593 239.734V241.814C91.113 240.294 93.233 239.334 95.913 239.334C99.233 239.334 101.353 240.494 102.433 242.894C103.913 240.814 106.353 239.374 109.633 239.374C115.033 239.374 117.233 243.494 117.233 248.614V253.494C117.233 254.534 117.433 255.414 118.433 255.414C119.033 255.414 119.793 255.174 120.473 254.854L120.753 260.174C119.673 260.614 117.633 261.054 115.713 261.054C112.433 261.054 110.513 259.414 110.513 255.094V249.734C110.513 247.054 109.273 245.574 106.993 245.574C105.233 245.574 104.033 246.654 103.473 247.814V248.614V260.654H96.753V249.694C96.753 247.054 95.593 245.574 93.313 245.574C91.393 245.574 90.193 246.694 89.593 247.894V260.654H82.873V239.734H89.593Z" fill="#FF601C"/>
<path d="M134.512 261.254C128.032 261.254 123.272 256.574 123.272 250.214C123.272 243.854 128.032 239.174 134.512 239.174C140.992 239.174 145.752 243.854 145.752 250.214C145.752 256.574 140.992 261.254 134.512 261.254ZM134.512 255.134C137.352 255.134 139.312 252.974 139.312 250.214C139.312 247.454 137.352 245.294 134.512 245.294C131.672 245.294 129.752 247.454 129.752 250.214C129.752 252.974 131.672 255.134 134.512 255.134Z" fill="#00E044"/>
<path d="M77.8335 51.7915C77.1204 52.5402 75.4921 43.6739 75.8487 41.6653C75.8725 41.4989 76.0032 40.9284 75.6823 40.4768C75.4684 40.1559 75.0762 39.9776 74.5532 39.8825C70.952 39.2645 67.3627 38.6584 63.7615 38.0285C63.2861 37.9453 62.8226 37.7789 62.3828 37.4104C65.5918 36.424 68.8483 36.3051 72.0811 36.7567C76.3122 37.351 80.472 38.3494 84.7031 38.908C90.9666 39.7399 96.5408 35.2949 97.967 29.4236C100.166 20.4146 95.3523 13.6401 85.5708 11.7028C82.4925 11.0967 79.2597 11.1918 76.1102 10.9541C75.302 10.8946 74.4819 10.8352 73.6737 10.7758C73.6381 10.6213 73.6024 10.4668 73.5668 10.3004C74.1016 9.97947 74.5889 9.48029 75.1712 9.34955C82.7778 7.60244 90.1822 7.68563 96.6002 12.7725C103.719 18.406 105.122 26.9634 100.237 34.6412C95.8395 41.5465 86.7355 45.73 81.2446 46.3243C80.9474 46.36 79.4737 46.7046 79.1647 46.8235C78.8556 46.9423 78.5229 47.4653 78.4159 48.0239C78.3565 48.3448 78.7487 50.8169 77.8216 51.7915H77.8335Z" fill="#00E044"/>
<path d="M19.6438 30.3268C19.5606 29.376 19.4655 28.4252 19.3942 27.4863C18.8 20.4859 21.7356 14.7692 26.561 10.1696C34.7498 2.31351 44.674 -1.15695 56.0481 0.340577C63.298 1.29139 68.9078 5.26103 72.9131 11.2155C74.2442 13.2003 74.5889 15.8745 75.2426 18.2753C75.8963 20.6642 76.1221 23.2076 78.4278 24.8478C78.309 25.0023 78.1901 25.1568 78.0713 25.3232C77.4651 25.0261 76.5975 24.8834 76.2885 24.3962C75.2901 22.8273 74.1254 21.2228 73.6856 19.4638C70.8451 8.20856 60.0415 1.88565 48.2395 3.7635C44.1748 4.4053 40.2408 5.368 36.699 7.6143C28.8548 12.5823 24.802 22.138 26.5015 31.3252C26.9888 33.9875 27.0245 36.7448 27.072 39.4547C27.0839 40.1202 26.347 40.8096 25.9548 41.487C25.729 41.4038 25.5032 41.3087 25.2774 41.2255C25.2774 40.4649 25.2774 39.6924 25.2774 38.9317C25.2417 34.9977 22.6626 32.5137 18.7405 32.8227C13.9627 33.1912 10.1951 35.5563 7.21192 39.1813C2.87383 44.4583 2.87383 50.4128 5.42914 56.2365C7.79429 61.6324 12.1918 64.9364 18.2414 65.6258C21.9852 66.0536 25.4438 63.8549 27.179 59.9566C27.5712 59.0771 27.8921 58.1381 28.106 57.1873C28.7597 54.1923 26.8106 51.9222 23.768 52.255C21.284 52.5283 18.8475 53.0988 16.3873 53.5267C15.9475 53.598 15.484 53.5861 14.9729 53.3365C28.0347 43.3292 43.0219 38.6702 59.1026 37.0063C59.1976 37.2559 59.2927 37.5174 59.3878 37.767C58.6866 37.9809 58.0091 38.278 57.2841 38.4088C48.2514 40.0846 39.8486 43.0796 33.0622 49.5927C32.4798 50.1513 31.6003 50.5792 32.4917 51.6607C33.2523 52.5759 33.799 52.457 34.7855 51.9222C37.5666 50.4128 40.4428 49.0697 43.3309 47.7743C44.1272 47.4177 45.1018 47.4296 46.0051 47.2751C46.0645 47.489 46.1358 47.703 46.1953 47.9169C45.7674 48.1427 45.292 48.3091 44.9235 48.6062C42.1781 50.7931 39.3969 52.9324 36.7941 55.2738C36.3068 55.7136 36.4019 57.0922 36.6039 57.9361C37.0912 59.9684 37.9232 61.9414 37.5191 64.0688L36.9724 64.3303C36.1998 63.1418 35.4154 61.9414 34.5121 60.5508C31.3745 65.5426 26.8106 68.0385 21.1651 68.5614C17.1836 68.9417 13.3922 68.1573 9.88608 66.1606C2.63613 62.0365 -1.3454 53.5029 0.413605 45.837C2.17261 38.1711 8.66191 30.1961 19.6438 30.3268Z" fill="#00E044"/>
<path d="M173 59.6543L123.901 179.021C112.133 208.643 100.14 222.654 73.6737 222.654C62.8083 222.654 52.4144 218.578 46.5307 214.747L51.2869 189.202C56.9451 192.357 65.0839 195.983 73.6942 195.983C84.1086 195.983 88.8443 191.005 93.375 180.844L95.8556 174.74L42 59.6543H77.0768L109.653 143.315L141.101 59.6543H173Z" fill="#FF601C"/>
</svg>
